<svg xmlns="http://www.w3.org/2000/svg" viewBox="0 0 86.78 86.06"><defs><style>.cls-1{fill:#23912d;}</style></defs><g id="Layer_2" data-name="Layer 2"><g id="OBJECTS"><path class="cls-1" d="M4.22,2.11A2.11,2.11,0,1,1,2.11,0,2.1,2.1,0,0,1,4.22,2.11Z"/><path class="cls-1" d="M31.74,2.11A2.11,2.11,0,1,1,29.63,0,2.1,2.1,0,0,1,31.74,2.11Z"/><path class="cls-1" d="M59.26,2.11A2.11,2.11,0,1,1,57.15,0,2.1,2.1,0,0,1,59.26,2.11Z"/><circle class="cls-1" cx="84.67" cy="2.11" r="2.11"/><path class="cls-1" d="M4.22,29.39a2.11,2.11,0,1,1-2.11-2.11A2.1,2.1,0,0,1,4.22,29.39Z"/><path class="cls-1" d="M31.74,29.39a2.11,2.11,0,1,1-2.11-2.11A2.1,2.1,0,0,1,31.74,29.39Z"/><path class="cls-1" d="M59.26,29.39a2.11,2.11,0,1,1-2.11-2.11A2.1,2.1,0,0,1,59.26,29.39Z"/><circle class="cls-1" cx="84.67" cy="29.39" r="2.11"/><path class="cls-1" d="M4.22,56.67a2.11,2.11,0,1,1-2.11-2.11A2.1,2.1,0,0,1,4.22,56.67Z"/><path class="cls-1" d="M31.74,56.67a2.11,2.11,0,1,1-2.11-2.11A2.1,2.1,0,0,1,31.74,56.67Z"/><path class="cls-1" d="M59.26,56.67a2.11,2.11,0,1,1-2.11-2.11A2.1,2.1,0,0,1,59.26,56.67Z"/><path class="cls-1" d="M86.78,56.67a2.11,2.11,0,1,1-2.11-2.11A2.1,2.1,0,0,1,86.78,56.67Z"/><path class="cls-1" d="M4.22,84a2.11,2.11,0,1,1-2.11-2.11A2.1,2.1,0,0,1,4.22,84Z"/><path class="cls-1" d="M31.74,84a2.11,2.11,0,1,1-2.11-2.11A2.1,2.1,0,0,1,31.74,84Z"/><path class="cls-1" d="M59.26,84a2.11,2.11,0,1,1-2.11-2.11A2.1,2.1,0,0,1,59.26,84Z"/><circle class="cls-1" cx="84.67" cy="83.95" r="2.11"/></g></g></svg>