<svg xmlns="http://www.w3.org/2000/svg" viewBox="0 0 128.63 24"><defs><style>.cls-1{fill:#23912d;}</style></defs><g id="Layer_2" data-name="Layer 2"><g id="OBJECTS"><polygon class="cls-1" points="4.58 24 28.59 0 24 0 0 24 4.58 24"/><polygon class="cls-1" points="18.88 24 42.88 0 38.29 0 14.29 24 18.88 24"/><polygon class="cls-1" points="33.17 24 57.17 0 52.59 0 28.59 24 33.17 24"/><polygon class="cls-1" points="47.46 24 71.46 0 66.88 0 42.88 24 47.46 24"/><polygon class="cls-1" points="61.76 24 85.75 0 81.17 0 57.17 24 61.76 24"/><polygon class="cls-1" points="76.05 24 100.05 0 95.46 0 71.46 24 76.05 24"/><polygon class="cls-1" points="90.34 24 114.34 0 109.75 0 85.75 24 90.34 24"/><polygon class="cls-1" points="104.63 24 128.63 0 124.05 0 100.05 24 104.63 24"/></g></g></svg>