<svg xmlns="http://www.w3.org/2000/svg" viewBox="0 0 155.23 155.23"><defs><style>.cls-1{fill:#23912d;}</style></defs><g id="Layer_2" data-name="Layer 2"><g id="OBJECTS"><path class="cls-1" d="M28.92,138.08c.64.52,1.29,1,1.95,1.52L139.6,30.87c-.5-.66-1-1.31-1.52-1.95Z"/><path class="cls-1" d="M55.48,152c.9.27,1.81.51,2.72.75L152.79,58.2c-.24-.91-.48-1.82-.75-2.72Z"/><path class="cls-1" d="M36.82,143.68c.72.45,1.45.88,2.18,1.3L145,39c-.42-.73-.85-1.46-1.3-2.18Z"/><path class="cls-1" d="M45.64,148.37c.8.37,1.61.72,2.42,1L149.42,48.06c-.33-.81-.68-1.62-1-2.42Z"/><path class="cls-1" d="M66.57,154.46c1,.15,2.06.27,3.09.38l85.18-85.18c-.11-1-.23-2.06-.38-3.09Z"/><path class="cls-1" d="M22.72,132.51l.87.85L133.36,23.59l-.85-.87-.88-.86L21.86,131.63Z"/><path class="cls-1" d="M79.31,155.23c1.21,0,2.42-.09,3.63-.17l72.12-72.12c.08-1.21.14-2.42.17-3.63Z"/><path class="cls-1" d="M153.35,94.7,94.7,153.35c1.56-.35,3.11-.75,4.66-1.2l52.79-52.79C152.6,97.81,153,96.26,153.35,94.7Z"/><path class="cls-1" d="M.16,72.29C.08,73.49,0,74.7,0,75.91L75.91,0c-1.21,0-2.42.08-3.62.16Z"/><path class="cls-1" d="M.39,85.57c.11,1,.23,2.06.38,3.09L88.66.77C87.63.62,86.6.5,85.57.39Z"/><path class="cls-1" d="M117,144.51A78.11,78.11,0,0,0,144.51,117Z"/><path class="cls-1" d="M3.08,55.87c-.45,1.54-.85,3.1-1.2,4.66L60.53,1.88c-1.56.35-3.12.75-4.66,1.2Z"/><path class="cls-1" d="M38.18,10.72A78.27,78.27,0,0,0,10.72,38.18Z"/><path class="cls-1" d="M10.25,116.23c.42.73.85,1.45,1.29,2.17L118.4,11.54c-.72-.44-1.44-.87-2.17-1.29Z"/><path class="cls-1" d="M15.63,124.36c.49.65,1,1.3,1.52,2L126.31,17.15c-.65-.52-1.3-1-2-1.52Z"/><path class="cls-1" d="M2.44,97c.23.9.48,1.81.75,2.71L99.74,3.19c-.9-.27-1.81-.52-2.71-.75Z"/><path class="cls-1" d="M5.81,107.17c.33.81.68,1.61,1,2.41L109.58,6.85c-.8-.36-1.6-.71-2.41-1Z"/></g></g></svg>