<svg xmlns="http://www.w3.org/2000/svg" viewBox="0 0 21.24 112.36"><defs><style>.cls-1{fill:#23912d;}</style></defs><g id="Layer_2" data-name="Layer 2"><g id="OBJECTS"><circle class="cls-1" cx="1.41" cy="1.41" r="1.41"/><circle class="cls-1" cx="19.83" cy="1.41" r="1.41"/><circle class="cls-1" cx="1.41" cy="19.67" r="1.41"/><circle class="cls-1" cx="19.83" cy="19.67" r="1.41"/><circle class="cls-1" cx="1.41" cy="37.93" r="1.41"/><circle class="cls-1" cx="19.83" cy="37.93" r="1.41"/><circle class="cls-1" cx="1.41" cy="56.18" r="1.41"/><circle class="cls-1" cx="19.83" cy="56.18" r="1.41"/><path class="cls-1" d="M2.82,74.44A1.41,1.41,0,1,1,1.41,73,1.41,1.41,0,0,1,2.82,74.44Z"/><path class="cls-1" d="M21.24,74.44A1.41,1.41,0,1,1,19.83,73,1.41,1.41,0,0,1,21.24,74.44Z"/><circle class="cls-1" cx="1.41" cy="92.69" r="1.41"/><circle class="cls-1" cx="19.83" cy="92.69" r="1.41"/><path class="cls-1" d="M2.82,111a1.41,1.41,0,1,1-1.41-1.41A1.41,1.41,0,0,1,2.82,111Z"/><path class="cls-1" d="M21.24,111a1.41,1.41,0,1,1-1.41-1.41A1.41,1.41,0,0,1,21.24,111Z"/></g></g></svg>