<svg xmlns="http://www.w3.org/2000/svg" viewBox="0 0 60.46 60.46"><defs><style>.cls-1{fill:#23912d;}</style></defs><g id="Layer_2" data-name="Layer 2"><g id="OBJECTS"><path class="cls-1" d="M15.68,60.46H0V44.78H15.68ZM.75,59.71H14.93V45.53H.75Z"/><path class="cls-1" d="M30.6,45.53H14.93V29.85H30.6Zm-14.92-.75H29.85V30.6H15.68Z"/><path class="cls-1" d="M45.53,45.53H29.85V29.85H45.53ZM30.6,44.78H44.78V30.6H30.6Z"/><path class="cls-1" d="M30.6,30.6H14.93V14.93H30.6Zm-14.92-.75H29.85V15.68H15.68Z"/><path class="cls-1" d="M30.6,60.46H14.93V44.78H30.6Zm-14.92-.75H29.85V45.53H15.68Z"/><path class="cls-1" d="M45.53,60.46H29.85V44.78H45.53ZM30.6,59.71H44.78V45.53H30.6Z"/><path class="cls-1" d="M60.46,60.46H44.78V44.78H60.46Zm-14.93-.75H59.71V45.53H45.53Z"/><path class="cls-1" d="M15.68,45.53H0V29.85H15.68ZM.75,44.78H14.93V30.6H.75Z"/><path class="cls-1" d="M15.68,30.6H0V14.93H15.68ZM.75,29.85H14.93V15.68H.75Z"/><path class="cls-1" d="M15.68,15.68H0V0H15.68ZM.75,14.93H14.93V.75H.75Z"/></g></g></svg>