<svg xmlns="http://www.w3.org/2000/svg" viewBox="0 0 64.46 49.11"><defs><style>.cls-1{fill:#23912d;}</style></defs><g id="Layer_2" data-name="Layer 2"><g id="OBJECTS"><path class="cls-1" d="M63.17,3.86l1.29-1.7a11.37,11.37,0,0,0-13.7.27,9.19,9.19,0,0,1-11.49,0,11.41,11.41,0,0,0-14.08,0,9.19,9.19,0,0,1-11.49,0A11.37,11.37,0,0,0,0,2.16l1.29,1.7A9.44,9.44,0,0,1,6.67,2.11a9.5,9.5,0,0,1,5.74,2,11.61,11.61,0,0,0,7,2.44,11.61,11.61,0,0,0,7-2.44,9.2,9.2,0,0,1,11.5,0,11.4,11.4,0,0,0,14.07,0A9.16,9.16,0,0,1,63.17,3.86Z"/><path class="cls-1" d="M1.29,13.06a9.17,9.17,0,0,1,11.12.26,11.37,11.37,0,0,0,14.07,0,9.23,9.23,0,0,1,11.5,0,11.36,11.36,0,0,0,14.07,0,9.17,9.17,0,0,1,11.12-.26l1.29-1.7a11.36,11.36,0,0,0-13.7.27,9.22,9.22,0,0,1-11.49,0,11.39,11.39,0,0,0-14.08,0,9.22,9.22,0,0,1-11.49,0A11.36,11.36,0,0,0,0,11.36Z"/><path class="cls-1" d="M38,22.52a11.4,11.4,0,0,0,14.07,0,9.16,9.16,0,0,1,11.12-.27l1.29-1.7a11.37,11.37,0,0,0-13.7.27,9.19,9.19,0,0,1-11.49,0,11.4,11.4,0,0,0-14.08,0,9.19,9.19,0,0,1-11.49,0A11.37,11.37,0,0,0,0,20.55l1.29,1.7a9.16,9.16,0,0,1,11.12.27,11.4,11.4,0,0,0,14.07,0,9.19,9.19,0,0,1,11.5,0Z"/><path class="cls-1" d="M38,46.68a11.4,11.4,0,0,0,14.07,0,9.16,9.16,0,0,1,11.12-.27l1.29-1.7a11.37,11.37,0,0,0-13.7.27,9.19,9.19,0,0,1-11.49,0,11.39,11.39,0,0,0-14.08,0A9.19,9.19,0,0,1,13.7,45,11.37,11.37,0,0,0,0,44.71l1.29,1.7a9.16,9.16,0,0,1,11.12.27,11.4,11.4,0,0,0,14.07,0,9.19,9.19,0,0,1,11.5,0Z"/></g></g></svg>